# AST/ASF file generated using VICON BodyLanguage
# -----------------------------------------------
:version 1.10
:name VICON
:units
  mass 1.0
  length 0.45
  angle deg
:documentation
   .ast/.asf automatically generated from VICON data using
   VICON BodyBuilder and BodyLanguage model FoxedUp or BRILLIANT.MOD
:root
   order TX TY TZ RX RY RZ
   axis XYZ
   position 0 0 0  
   orientation 0 0 0 
:bonedata
  begin
     id 1 
     name lhipjoint
     direction 0.584852 -0.759097 0.285867 
     length 2.43633 
     axis 0 0 0  XYZ
  end
  begin
     id 2 
     name lfemur
     direction 0.34202 -0.939693 0  
     length 7.14704  
     axis 0 0 20  XYZ
    dof rx ry rz
    limits (-160.0 20.0)
           (-70.0 70.0)
           (-60.0 70.0)
  end
  begin
     id 3 
     name ltibia
     direction 0.342022 -0.939692 0   
     length 7.68483   
     axis 0 0 20   XYZ
    dof rx
    limits (-10.0 170.0)
  end
  begin
     id 4 
     name lfoot
     direction 0.0999605 -0.274639 0.956337   
     length 2.40452   
     axis -90 7.62852e-016 20   XYZ
    dof rx rz
    limits (-45.0 90.0)
           (-70.0 20.0)
  end
  begin
     id 5 
     name ltoes
     direction 1.53468e-011 -4.21881e-011 1   
     length 1.19837   
     axis -90 7.62852e-016 20   XYZ
    dof rx
    limits (-90.0 20.0)
  end
  begin
     id 6 
     name rhipjoint
     direction -0.569886 -0.769002 0.289597   
     length 2.40495  
     axis 0 0 0  XYZ 
  end
  begin
     id 7 
     name rfemur
     direction -0.34202 -0.939693 0   
     length 7.45086   
     axis 0 0 -20   XYZ
    dof rx ry rz
    limits (-160.0 20.0)
           (-70.0 70.0)
           (-70.0 60.0)
  end
  begin
     id 8 
     name rtibia
     direction -0.34202 -0.939693 0   
     length 7.76831   
     axis 0 0 -20   XYZ
    dof rx
    limits (-10.0 170.0)
 end
 begin
     id 9 
     name rfoot
     direction -0.0798572 -0.219406 0.97236   
     length 2.35911  
     axis -90 -7.62852e-016 -20   XYZ
    dof rx rz
    limits (-45.0 90.0)
           (-20.0 70.0)
  end
  begin
     id 10 
     name rtoes
     direction -1.53469e-011 -4.21728e-011 1   
     length 1.18261   
     axis -90 -7.62852e-016 -20   XYZ
    dof rx
    limits (-90.0 20.0)
  end
  begin
     id 11 
     name lowerback
     direction 0.0242088 0.999437 0.0232389   
     length 2.1561   
     axis 0 0 0   XYZ
    dof rx ry rz
    limits (-20.0 45.0)
           (-30.0 30.0)
           (-30.0 30.0)
  end
  begin
     id 12 
     name upperback
     direction -0.0356893 0.999013 -0.0264323   
     length 2.14431   
     axis 0 0 0   XYZ
    dof rx ry rz
    limits (-20.0 45.0)
           (-30.0 30.0)
           (-30.0 30.0)
  end
  begin
     id 13 
     name thorax
     direction -0.0472163 0.998194 -0.0371284   
     length 2.16169   
     axis 0 0 0   XYZ
    dof rx ry rz
    limits (-20.0 45.0)
           (-30.0 30.0)
           (-30.0 30.0)
  end
  begin
     id 14 
     name lowerneck
     direction 0.00863244 0.999921 0.00911972   
     length 1.58651   
     axis 0 0 0   XYZ
    dof rx ry rz
    limits (-20.0 45.0)
           (-30.0 30.0)
           (-30.0 30.0)
  end
  begin
     id 15 
     name upperneck
     direction 0.149523 0.979068 -0.138086   
     length 1.57486   
     axis 0 0 0   XYZ
    dof rx ry rz
    limits (-20.0 45.0)
           (-30.0 30.0)
           (-30.0 30.0)
  end
  begin
     id 16
     name head
     direction 0.0445219 0.997708 -0.0509576  
     length 1.6019  
     axis 0 0 0   XYZ
    dof rx ry rz
    limits (-20.0 45.0)
           (-30.0 30.0)
           (-30.0 30.0)
  end
  begin
     id 17 
     name lclavicle
     direction 0.911271 0.381667 -0.154644  
     length 3.80848  
     axis 0 0 0   XYZ
    dof ry rz
    limits (-20.0 10.0)
           (0.0 20.0)
  end
  begin
     id 18 
     name lhumerus
     direction 1 -4.49003e-011 2.1308e-027   
     length 5.19069   
     axis 180 -30 -90   XYZ
    dof rx ry rz
    limits (-60.0 90.0)
           (-90.0 90.0)
           (-90.0 90.0)
  end
  begin
     id 19
     name lradius
     direction 1 -4.48914e-011 4.01554e-027   
     length 3.30016   
     axis 180 -30 -90   XYZ
    dof rx
    limits (-10.0 170.0)
  end
  begin
     id 20
     name lwrist
     direction 1 -4.49003e-011 1.1934e-026   
     length 1.65008   
     axis -8.46377e-015 90 90   XYZ
    dof ry
    limits (-180.0 0.0)
 end
  begin
     id 21 
     name lhand
     direction 1 -4.49034e-011 2.38659e-026   
     length 0.707698   
     axis -1.52313e-014 90 90   XYZ
    dof rx rz
    limits (-90.0 90.0)
           (-45.0 45.0)
  end
  begin
     id 22 
     name lfingers
     direction 1 -4.48691e-011 4.77775e-026   
     length 0.570564   
     axis -3.04623e-014 90 90   XYZ
    dof rx
    limits (0.0 90.0)
  end
  begin
     id 23
     name lthumb
     direction 0.707107 -6.34832e-011 0.707107   
     length 0.819219   
     axis -90 45 -1.62303e-014   XYZ
    dof rx rz
    limits (-45.0 45.0)
           (-45.0 45.0)
  end
  begin
     id 24 
     name rclavicle
     direction -0.815579 0.573708 -0.0754329   
     length 3.54371  
     axis 0 0 0   XYZ 
    dof ry rz
    limits (-10.0 20.0)
           (-20.0 0.0)
  end
  begin
     id 25 
     name rhumerus
     direction -1 -4.48956e-011 3.05351e-028  
     length 5.23924   
     axis 180 30 90   XYZ
    dof rx ry rz
    limits (-90.0 60.0)
           (-90.0 90.0)
           (-90.0 90.0)
  end
  begin
     id 26 
     name rradius
     direction -1 -4.49013e-011 3.53849e-027   
     length 3.32953   
     axis 180 30 90   XYZ
    dof rx
    limits (-10.0 170.0)
  end
  begin
     id 27 
     name rwrist
     direction -1 -4.48901e-011 1.19374e-026   
     length 1.66477   
     axis -8.46377e-015 -90 -90   XYZ
    dof ry
    limits (-180.0 0.0)
  end
  begin
     id 28
     name rhand
     direction -1 -4.48877e-011 2.38764e-026   
     length 0.607414   
     axis -1.52313e-014 -90 -90   XYZ
    dof rx rz
    limits (-90.0 90.0)
           (-45.0 45.0)
  end
  begin
     id 29
     name rfingers
     direction -1 -4.48882e-011 4.77521e-026   
     length 0.489712   
     axis -3.04623e-014 -90 -90   XYZ
    dof rx
    limits (0.0 90.0)
  end
  begin
     id 30
     name rthumb
     direction -0.707107 -6.34974e-011 0.707107   
     length 0.703132   
     axis -90 -45 1.62303e-014   XYZ
    dof rx rz
    limits (-45.0 45.0)
           (-45.0 45.0)
  end
:hierarchy
  begin
    root lhipjoint rhipjoint lowerback
    lhipjoint lfemur
    lfemur ltibia
    ltibia lfoot
    lfoot ltoes
    rhipjoint rfemur
    rfemur rtibia
    rtibia rfoot
    rfoot rtoes
    lowerback upperback
    upperback thorax
    thorax lowerneck lclavicle rclavicle
    lowerneck upperneck
    upperneck head
    lclavicle lhumerus
    lhumerus lradius
    lradius lwrist
    lwrist lhand lthumb
    lhand lfingers
    rclavicle rhumerus
    rhumerus rradius
    rradius rwrist
    rwrist rhand rthumb
    rhand rfingers
  end

#!OML:ASF E:\VariousWalksJay\Project 1\Capture day 1\Session 1\Actor2.ASF
:FULLY-SPECIFIED
:DEGREES
348
root 7.05815 16.3908 15.8307 -20.3249 -19.3189 11.7294
lowerback 25.8592 -5.39672 7.25352
upperback 14.5049 -5.70996 -0.435607
thorax 1.24972 -2.53262 -3.17797
lowerneck 6.72581 -6.46074 -5.89223
upperneck -12.1704 -8.96415 4.12758
head -4.28602 -4.43546 2.69212
rclavicle -3.02153e-014 4.77083e-015
rhumerus -71.3775 23.9713 -125.791
rradius 65.6566
rwrist 17.8769
rhand -9.35081 6.41118
rfingers 7.12502
rthumb 16.6087 -22.8982
lclavicle -3.02153e-014 4.77083e-015
lhumerus -72.5079 -31.7228 138.152
lradius 61.8595
lwrist 0.838181
lhand 12.5028 -6.41991
lfingers 7.12502
lthumb 37.4961 19.5147
rfemur -13.4036 -13.1597 17.2094
rtibia 47.9335
rfoot -23.5624 -17.5778
rtoes 22.043
lfemur -64.1919 11.4582 -24.9988
ltibia 4.99647
lfoot -18.5379 10.8532
ltoes -21.7254
349
root 7.05563 16.3372 15.926 -20.3435 -19.2633 10.8922
lowerback 25.8631 -5.61379 7.83895
upperback 14.5456 -5.86001 -0.187176
thorax 1.27218 -2.58305 -3.19621
lowerneck 6.75906 -6.40696 -5.83984
upperneck -11.9625 -8.88321 4.13275
head -4.2341 -4.39991 2.67701
rclavicle 1.74931e-014 -6.52014e-014
rhumerus -71.3181 24.2039 -125.533
rradius 65.768
rwrist 17.8235
rhand -9.36146 6.44909
rfingers 7.12502
rthumb 16.5985 -22.8611
lclavicle 1.74931e-014 -6.52014e-014
lhumerus -72.0555 -31.7838 138.077
lradius 61.6678
lwrist 0.215476
lhand 12.4282 -6.60243
lfingers 7.12502
lthumb 37.4256 19.3508
rfemur -13.2389 -13.8913 17.6578
rtibia 48.9519
rfoot -24.0816 -17.1311
rtoes 21.5321
lfemur -63.934 11.2926 -24.1693
ltibia 6.04119
lfoot -19.0937 11.8491
ltoes -21.5695
350
root 7.04969 16.2911 16.0189 -20.1787 -19.2492 10.1112
lowerback 25.7187 -5.76502 8.33798
upperback 14.5278 -5.95569 0.0619808
thorax 1.30647 -2.61172 -3.18657
lowerneck 6.80041 -6.3653 -5.78098
upperneck -11.7124 -8.81664 4.14934
head -4.1696 -4.37273 2.66395
rclavicle 4.53229e-014 -6.36111e-014
rhumerus -71.273 24.3578 -125.3
rradius 65.936
rwrist 17.8468
rhand -9.37237 6.49666
rfingers 7.12502
rthumb 16.588 -22.8144
lclavicle 4.53229e-014 -6.36111e-014
lhumerus -71.7453 -31.8605 138.015
lradius 61.5908
lwrist -0.451665
lhand 12.3444 -6.71678
lfingers 7.12502
lthumb 37.3463 19.2574
rfemur -13.2038 -14.4901 18.1562
rtibia 49.7849
rfoot -24.575 -16.792
rtoes 21.0046
lfemur -63.598 11.1855 -23.3779
ltibia 6.53947
lfoot -19.3818 12.7297
ltoes -21.394
351
root 7.04036 16.253 16.1098 -19.8344 -19.2662 9.39259
lowerback 25.4075 -5.85226 8.77216
upperback 14.4594 -5.99971 0.300501
thorax 1.36804 -2.61749 -3.17542
lowerneck 6.87403 -6.33999 -5.72105
upperneck -11.4655 -8.77225 4.18045
head -4.10967 -4.35728 2.65746
rclavicle 1.82882e-014 -3.18055e-014
rhumerus -71.222 24.4055 -125.089
rradius 66.1358
rwrist 18.0357
rhand -9.39623 6.55076
rfingers 7.12502
rthumb 16.565 -22.7622
lclavicle 1.82882e-014 -3.18055e-014
lhumerus -71.5946 -31.9583 137.97
lradius 61.6235
lwrist -1.11158
lhand 12.2559 -6.76209
lfingers 7.12502
lthumb 37.2627 19.234
rfemur -13.3059 -14.9267 18.7083
rtibia 50.4382
rfoot -25.0652 -16.5806
rtoes 20.5712
lfemur -63.2537 11.1305 -22.6417
ltibia 6.63456
lfoot -19.4706 13.4873
ltoes -21.2305
352
root 7.02835 16.2226 16.1989 -19.3802 -19.3041 8.73731
lowerback 24.9936 -5.89317 9.14641
upperback 14.3635 -6.01019 0.517625
thorax 1.45119 -2.60857 -3.16941
lowerneck 6.96169 -6.32456 -5.66039
upperneck -11.2409 -8.7416 4.21801
head -4.05794 -4.34872 2.65464
rclavicle 1.16885e-013 -1.06549e-013
rhumerus -71.1559 24.3701 -124.923
rradius 66.3334
rwrist 18.3492
rhand -9.42781 6.61377
rfingers 7.12502
rthumb 16.5346 -22.7018
lclavicle 1.16885e-013 -1.06549e-013
lhumerus -71.5697 -32.0652 137.926
lradius 61.738
lwrist -1.71106
lhand 12.1701 -6.74954
lfingers 7.12502
lthumb 37.1816 19.2678
rfemur -13.481 -15.2079 19.2888
rtibia 50.9324
rfoot -25.5499 -16.496
rtoes 20.2247
lfemur -62.8921 11.1189 -21.9617
ltibia 6.45771
lfoot -19.4206 14.1281
ltoes -21.0449
353
root 7.01453 16.1994 16.2864 -18.8929 -19.3515 8.13856
lowerback 24.5489 -5.90514 9.46001
upperback 14.2609 -6.00312 0.714957
thorax 1.54576 -2.59318 -3.15811
lowerneck 7.06101 -6.31396 -5.60856
upperneck -11.0546 -8.7209 4.2451
head -4.01951 -4.34372 2.65214
rclavicle -5.48646e-014 4.77083e-014
rhumerus -71.0801 24.2825 -124.811
rradius 66.4999
rwrist 18.7202
rhand -9.46343 6.68842
rfingers 7.12502
rthumb 16.5003 -22.63
lclavicle -5.48646e-014 4.77083e-014
lhumerus -71.635 -32.1681 137.886
lradius 61.8963
lwrist -2.19313
lhand 12.0828 -6.69239
lfingers 7.12502
lthumb 37.099 19.3464
rfemur -13.6512 -15.3558 19.8661
rtibia 51.2929
rfoot -26.0112 -16.5135
rtoes 19.9078
lfemur -62.5075 11.1326 -21.3342
ltibia 6.1664
lfoot -19.3186 14.6754
ltoes -20.8978
354
root 6.99992 16.1825 16.3719 -18.4481 -19.3984 7.59478
lowerback 24.1411 -5.90078 9.71357
upperback 14.1731 -5.98746 0.892221
thorax 1.64362 -2.5758 -3.13586
lowerneck 7.1723 -6.30745 -5.57822
upperneck -10.9135 -8.71018 4.26502
head -3.99575 -4.34202 2.65309
rclavicle 1.66979e-014 -4.6118e-014
rhumerus -70.9874 24.1646 -124.757
rradius 66.6044
rwrist 19.0797
rhand -9.49896 6.77886
rfingers 7.12502
rthumb 16.4661 -22.5424
lclavicle 1.66979e-014 -4.6118e-014
lhumerus -71.7633 -32.2708 137.861
lradius 62.0574
lwrist -2.51754
lhand 11.9933 -6.60635
lfingers 7.12502
lthumb 37.0144 19.4544
rfemur -13.7388 -15.4026 20.3971
rtibia 51.5443
rfoot -26.4366 -16.574
rtoes 19.6007
lfemur -62.1126 11.1528 -20.7623
ltibia 5.94781
lfoot -19.2492 15.1459
ltoes -20.7196
355
root 6.98561 16.171 16.4551 -18.0893 -19.4398 7.09565
lowerback 23.817 -5.8938 9.91633
upperback 14.1141 -5.97317 1.05134
thorax 1.73686 -2.5611 -3.10025
lowerneck 7.26286 -6.30561 -5.56116
upperneck -10.7973 -8.70951 4.2603
head -3.97634 -4.34316 2.64905
rclavicle 6.91771e-014 -2.54444e-014
rhumerus -70.8782 24.0426 -124.764
rradius 66.6228
rwrist 19.3648
rhand -9.53059 6.8899
rfingers 7.12502
rthumb 16.4356 -22.4338
lclavicle 6.91771e-014 -2.54444e-014
lhumerus -71.9214 -32.3746 137.856
lradius 62.1871
lwrist -2.66653
lhand 11.8986 -6.51103
lfingers 7.12502
lthumb 36.9248 19.5728
rfemur -13.7019 -15.3893 20.861
rtibia 51.7071
rfoot -26.807 -16.6354
rtoes 19.2704
lfemur -61.7582 11.1631 -20.2443
ltibia 5.99366
lfoot -19.296 15.5425
ltoes -20.4942
356
root 6.97281 16.1644 16.5357 -17.8287 -19.4737 6.63988
lowerback 23.587 -5.89179 10.0795
upperback 14.0922 -5.96623 1.18766
thorax 1.82797 -2.55099 -3.06057
lowerneck 7.3326 -6.30533 -5.55445
upperneck -10.7103 -8.71278 4.24435
head -3.96231 -4.34497 2.64348
rclavicle -1.19271e-014 5.08889e-014
rhumerus -70.7544 23.9358 -124.831
rradius 66.5624
rwrist 19.4994
rhand -9.54864 7.01662
rfingers 7.12502
rthumb 16.4183 -22.3086
lclavicle -1.19271e-014 5.08889e-014
lhumerus -72.0829 -32.4896 137.86
lradius 62.2656
lwrist -2.64986
lhand 11.8033 -6.43159
lfingers 7.12502
lthumb 36.8346 19.6754
rfemur -13.5393 -15.3556 21.2436
rtibia 51.7971
rfoot -27.1078 -16.6769
rtoes 18.8831
lfemur -61.4707 11.1529 -19.7858
ltibia 6.3814
lfoot -19.5184 15.8485
ltoes -20.237
